<?xml version="1.0" encoding="UTF-8"?>
<svg version="1.1" xmlns="http://www.w3.org/2000/svg" width="500" height="334">
<path d="M0 0 C1.6640625 1.26171875 1.6640625 1.26171875 3 3 C3.29296875 5.26171875 3.29296875 5.26171875 3.1875 7.6875 C3.16042969 8.49574219 3.13335937 9.30398437 3.10546875 10.13671875 C3.07066406 10.75160156 3.03585937 11.36648437 3 12 C3.61617188 12.28359375 4.23234375 12.5671875 4.8671875 12.859375 C8.67089022 14.89358964 10.52210782 17.97594534 12.3125 21.8125 C14.06049444 29.91683787 11.10913323 36.14791443 7 43 C3.08023491 48.96364259 -0.50691913 52.95222735 -7 56 C-2.8630575 62.11776667 1.68976269 63.89661991 8.5 66.375 C23.92802206 72.34294274 37.78760671 80.60735478 49 93 C49 93.66 49 94.32 49 95 C49.66 95 50.32 95 51 95 C52.31476977 96.63753983 53.55210408 98.33762273 54.75 100.0625 C61.53662714 109.54684167 68.70437427 116.03118922 78 123 C87.23197804 129.95330469 94.87223694 140.42902183 97 152 C97.1206162 154.61709103 97.18508391 157.19587219 97.1875 159.8125 C97.19974609 160.49892578 97.21199219 161.18535156 97.22460938 161.89257812 C97.23785823 166.56059304 96.69155781 170.58652179 95 175 C88.74802015 180.96342693 76.41080689 182.17787641 68.25 182.1875 C66.49951859 182.14037165 64.74911259 182.08373411 63 182 C62.690625 183.918125 62.690625 183.918125 62.375 185.875 C61.09888371 191.65398379 58.2828533 196.14000569 55 201 C54.401875 201.886875 53.80375 202.77375 53.1875 203.6875 C49.8196314 207.24781823 45.91685658 210.07268042 42 213 C44.81308522 221.83043926 48.07632909 230.41555931 51.5625 239 C52.62282898 241.62820821 53.68042951 244.25751266 54.73828125 246.88671875 C55.00627533 247.55184982 55.27426941 248.2169809 55.55038452 248.90226746 C58.23565954 255.57143245 60.88369929 262.25506799 63.51535034 268.94555664 C64.24131751 270.79043544 64.96940099 272.634481 65.69750977 274.47851562 C66.13248779 275.58517578 66.56746582 276.69183594 67.015625 277.83203125 C67.40008789 278.80889893 67.78455078 279.7857666 68.18066406 280.79223633 C69 283 69 283 69 284 C65.37 284 61.74 284 58 284 C51.83696876 270.78346151 45.8487665 257.5300949 40.35009766 244.02148438 C38.60225114 239.74651549 36.82164195 235.54940802 34.71484375 231.4375 C33 228 33 228 33 226 C25.87098644 228.03353212 18.74218431 230.06780371 11.61364174 232.10298634 C8.30258753 233.04826039 4.99146449 233.99329182 1.68017578 234.93774414 C-2.13790913 236.02675792 -5.95567968 237.1168713 -9.7734375 238.20703125 C-10.94675629 238.54152786 -12.12007507 238.87602448 -13.32894897 239.22065735 C-19.90113111 241.09836038 -26.45954084 243.0145014 -33 245 C-33.78673635 251.10431575 -31.29552676 254.10132992 -27.8125 258.75 C-21.94085981 266.92872381 -17.7881056 274.24163041 -15 284 C-39.42 284 -63.84 284 -89 284 C-91.45599786 278.4740048 -93.63527486 273.46490163 -95.47265625 267.796875 C-95.68184189 267.15236389 -95.89102753 266.50785278 -96.10655212 265.84381104 C-96.54329238 264.49350634 -96.97757021 263.14240281 -97.40942383 261.79052734 C-98.05759252 259.76533336 -98.71670636 257.74394017 -99.37695312 255.72265625 C-109.25886688 225.18914503 -109.25886688 225.18914503 -104.0859375 212.01953125 C-99.58125355 203.64211541 -89.78650614 197.92883538 -81 195 C-80.67 192.36 -80.34 189.72 -80 187 C-81.15048828 186.67708984 -81.15048828 186.67708984 -82.32421875 186.34765625 C-87.39734487 184.48768971 -92.04739044 181.97089045 -96.8125 179.4375 C-97.77865234 178.93025391 -98.74480469 178.42300781 -99.74023438 177.90039062 C-106.8539109 174.1460891 -106.8539109 174.1460891 -108 173 C-108.33 176.63 -108.66 180.26 -109 184 C-114.61 184 -120.22 184 -126 184 C-125.63350802 188.50077866 -125.25967714 193.00075429 -124.875 197.5 C-124.81363861 198.21808838 -124.75227722 198.93617676 -124.6890564 199.67602539 C-123.74618874 210.59035195 -122.64815333 221.48415943 -121.46484375 232.375 C-121.26226959 234.24097839 -121.26226959 234.24097839 -121.05560303 236.14465332 C-120.37344315 242.40671751 -119.68228166 248.66767936 -118.98193359 254.92773438 C-118.72355062 257.27473054 -118.46524646 259.62173538 -118.20703125 261.96875 C-118.02441994 263.56710693 -118.02441994 263.56710693 -117.83811951 265.19775391 C-117.15018741 271.4947254 -116.84768181 277.66628001 -117 284 C-119.14576637 284.02685938 -121.29162645 284.04633088 -123.4375 284.0625 C-124.63246094 284.07410156 -125.82742187 284.08570313 -127.05859375 284.09765625 C-130 284 -130 284 -131 283 C-131.45440807 280.20878065 -131.85169535 277.42829898 -132.21508789 274.62475586 C-132.33415465 273.73253861 -132.45322142 272.84032137 -132.57589626 271.92106724 C-132.96212209 269.01950399 -133.34248394 266.1172057 -133.72265625 263.21484375 C-133.95953519 261.42870052 -134.19679625 259.64260792 -134.43444824 257.85656738 C-135.31510568 251.21749212 -136.18834705 244.57743483 -137.0625 237.9375 C-139.021875 223.108125 -140.98125 208.27875 -143 193 C-176.33 192.67 -209.66 192.34 -244 192 C-244.33 196.62 -244.66 201.24 -245 206 C-245.54257748 210.54503813 -246.11464132 215.072729 -246.7421875 219.60546875 C-246.91122589 220.85016434 -247.08026428 222.09485992 -247.25442505 223.37727356 C-247.70045826 226.6533004 -248.1504966 229.92874392 -248.60229492 233.20397949 C-249.05302953 236.4823979 -249.49659203 239.76178954 -249.94140625 243.04101562 C-251.80575274 256.72032655 -253.75928006 270.37697921 -256 284 C-260.62 284 -265.24 284 -270 284 C-268.68406218 266.16129886 -266.93059032 248.39984062 -264.9375 230.625 C-264.53217591 226.98314 -264.12794968 223.3411616 -263.7247467 219.69906616 C-263.47686779 217.46276111 -263.22765425 215.22660339 -262.97679138 212.9906311 C-260.48934385 193.93096068 -260.48934385 193.93096068 -263.2734375 175.1640625 C-263.63276871 173.92577698 -263.63276871 173.92577698 -263.99935913 172.66247559 C-264.78035601 169.97999595 -265.57774613 167.30268772 -266.375 164.625 C-266.91958335 162.76193231 -267.462863 160.89848308 -268.00488281 159.03466797 C-269.11371065 155.22712715 -270.22840483 151.42138977 -271.34863281 147.6171875 C-273.62315832 139.88919332 -275.86603447 132.1522121 -278.09112549 124.40985107 C-278.73974637 122.16055764 -279.39561896 119.9134711 -280.05224609 117.66650391 C-280.44657725 116.30118997 -280.84063634 114.93579742 -281.234375 113.5703125 C-281.57694336 112.39227051 -281.91951172 111.21422852 -282.27246094 110.00048828 C-283 107 -283 107 -283 103 C-250.66 103 -218.32 103 -185 103 C-180.8527102 116.62680935 -176.74981287 130.1918486 -173.0625 143.9375 C-172.66113935 145.42261582 -172.25944636 146.90764187 -171.85742188 148.39257812 C-170.90116651 151.92737295 -169.94923125 155.46331149 -169 159 C-165.95639534 159 -164.82347149 157.21433003 -162.625 155.1875 C-154.86261969 148.06116758 -154.86261969 148.06116758 -151.8515625 147.84765625 C-150.74941406 147.95400391 -150.74941406 147.95400391 -149.625 148.0625 C-144.90479045 148.25531902 -142.87434558 146.69519693 -139 144 C-132.51058058 143.20759017 -127.58464654 145.44242089 -121.75 147.9375 C-119.97412148 148.67617361 -118.19808659 149.41447142 -116.421875 150.15234375 C-115.64424805 150.48226318 -114.86662109 150.81218262 -114.06542969 151.15209961 C-97.17742295 158.08496573 -69.52659479 151.02676658 -53.359375 144.5390625 C-41.22128712 138.94293108 -31.88511356 131.11285359 -26 119 C-25.68546875 118.37996094 -25.3709375 117.75992188 -25.046875 117.12109375 C-20.2086272 106.1401686 -20.74222842 92.99743439 -20.5625 81.25 C-20.52809814 80.01870361 -20.49369629 78.78740723 -20.45825195 77.51879883 C-20.42121294 69.54145503 -21.37881157 62.70406412 -26 56 C-28.00289524 54.62215571 -29.81490867 53.75847487 -32.078125 52.890625 C-35.31728739 51.38954974 -36.85306212 48.80294668 -39 46 C-41.16220617 44.1873495 -41.16220617 44.1873495 -43 43 C-42.67 40.36 -42.34 37.72 -42 35 C-42.639375 34.7525 -43.27875 34.505 -43.9375 34.25 C-46 33 -46 33 -46.62890625 30.921875 C-46.81259766 29.97054687 -46.81259766 29.97054687 -47 29 C-46.50628906 28.66226563 -46.01257813 28.32453125 -45.50390625 27.9765625 C-44.86324219 27.53054687 -44.22257813 27.08453125 -43.5625 26.625 C-42.60537109 25.96371094 -42.60537109 25.96371094 -41.62890625 25.2890625 C-39.86259072 24.07839147 -39.86259072 24.07839147 -39 22 C-38.34 22 -37.68 22 -37 22 C-37 21.01 -37 20.02 -37 19 C-38.22589844 18.64808594 -38.22589844 18.64808594 -39.4765625 18.2890625 C-43.73071995 16.73266343 -47.46373396 14.63830042 -51.375 12.375 C-52.11105469 11.95476563 -52.84710938 11.53453125 -53.60546875 11.1015625 C-55.4063765 10.07247236 -57.20357318 9.03689244 -59 8 C-58.67 7.01 -58.34 6.02 -58 5 C-52.02859313 5.45413612 -47.69082073 8.12561669 -42.625 11.0625 C-41.79355469 11.53494141 -40.96210938 12.00738281 -40.10546875 12.49414062 C-38.0655651 13.65477546 -36.03077982 14.82349773 -34 16 C-33.57267578 14.84371094 -33.57267578 14.84371094 -33.13671875 13.6640625 C-31.14494115 8.99604764 -28.11709895 6.59016548 -23.6875 4.25 C-20.8448916 3.28640393 -18.83683531 2.7877203 -15.9375 2.5 C-12.00454627 2.23124285 -12.00454627 2.23124285 -8.875 0.375 C-5.35068132 -1.31054372 -3.69242973 -1.14875592 0 0 Z M-8 4 C-8 4.66 -8 5.32 -8 6 C-6.03533587 7.06775224 -4.03144641 8.06553465 -2 9 C-1.34 8.67 -0.68 8.34 0 8 C-1.3553326 5.46326712 -1.3553326 5.46326712 -3 3 C-5.21081851 2.89459074 -5.21081851 2.89459074 -8 4 Z M-156.453125 161.5546875 C-157.72849923 162.31194095 -158.99393588 163.08613046 -160.25 163.875 C-160.8996875 164.26558594 -161.549375 164.65617188 -162.21875 165.05859375 C-163.82120052 166.02477715 -165.41180293 167.01056172 -167 168 C-166.67 168.99 -166.34 169.98 -166 171 C-155.77 171 -145.54 171 -135 171 C-137.97524906 168.76856321 -140.82285968 166.83119187 -144 164.9375 C-144.845625 164.43089844 -145.69125 163.92429688 -146.5625 163.40234375 C-147.366875 162.93957031 -148.17125 162.47679687 -149 162 C-149.61359375 161.52949219 -150.2271875 161.05898437 -150.859375 160.57421875 C-153.27278876 159.68482788 -153.27278876 159.68482788 -156.453125 161.5546875 Z M-120 170 C-120 170.33 -120 170.66 -120 171 C-117.69 171 -115.38 171 -113 171 C-113 170.67 -113 170.34 -113 170 C-115.31 170 -117.62 170 -120 170 Z " fill="#212667" transform="translate(353,50)"/>
<path d="M0 0 C32.34 0 64.68 0 98 0 C102.1472898 13.62680935 106.25018713 27.1918486 109.9375 40.9375 C110.33886065 42.42261582 110.74055364 43.90764187 111.14257812 45.39257812 C112.09883349 48.92737295 113.05076875 52.46331149 114 56 C117.04360466 56 118.17652851 54.21433003 120.375 52.1875 C128.13738031 45.06116758 128.13738031 45.06116758 131.1484375 44.84765625 C131.88320312 44.91855469 132.61796875 44.98945313 133.375 45.0625 C138.09520955 45.25531902 140.12565442 43.69519693 144 41 C150.48941942 40.20759017 155.41535346 42.44242089 161.25 44.9375 C163.02587852 45.67617361 164.80191341 46.41447142 166.578125 47.15234375 C167.35575195 47.48226318 168.13337891 47.81218262 168.93457031 48.15209961 C172.60089637 49.65720013 175.38501961 50.11941978 179.32421875 50.09765625 C180.35224609 50.09443359 181.38027344 50.09121094 182.43945312 50.08789062 C183.51130859 50.07951172 184.58316406 50.07113281 185.6875 50.0625 C186.77095703 50.05798828 187.85441406 50.05347656 188.97070312 50.04882812 C191.64719085 50.03703743 194.32356777 50.02058063 197 50 C197.33 52.31 197.66 54.62 198 57 C200.97 57.495 200.97 57.495 204 58 C204 66.58 204 75.16 204 84 C199.03216495 83.17202749 196.79014045 82.62033508 192.63671875 80.3125 C191.66798828 79.77882813 190.69925781 79.24515625 189.70117188 78.6953125 C188.70666016 78.13585937 187.71214844 77.57640625 186.6875 77 C185.67365234 76.44054687 184.65980469 75.88109375 183.61523438 75.3046875 C176.18268327 71.18268327 176.18268327 71.18268327 175 70 C174.67 73.63 174.34 77.26 174 81 C168.39 81 162.78 81 157 81 C157.36649198 85.50077866 157.74032286 90.00075429 158.125 94.5 C158.18636139 95.21808838 158.24772278 95.93617676 158.3109436 96.67602539 C159.25381126 107.59035195 160.35184667 118.48415943 161.53515625 129.375 C161.73773041 131.24097839 161.73773041 131.24097839 161.94439697 133.14465332 C162.62655685 139.40671751 163.31771834 145.66767936 164.01806641 151.92773438 C164.27644938 154.27473054 164.53475354 156.62173538 164.79296875 158.96875 C164.91470963 160.03432129 165.0364505 161.09989258 165.16188049 162.19775391 C165.84981259 168.4947254 166.15231819 174.66628001 166 181 C163.85423363 181.02685938 161.70837355 181.04633088 159.5625 181.0625 C158.36753906 181.07410156 157.17257813 181.08570313 155.94140625 181.09765625 C153 181 153 181 152 180 C151.54559193 177.20878065 151.14830465 174.42829898 150.78491211 171.62475586 C150.66584535 170.73253861 150.54677858 169.84032137 150.42410374 168.92106724 C150.03787791 166.01950399 149.65751606 163.1172057 149.27734375 160.21484375 C149.04046481 158.42870052 148.80320375 156.64260792 148.56555176 154.85656738 C147.68489432 148.21749212 146.81165295 141.57743483 145.9375 134.9375 C143.978125 120.108125 142.01875 105.27875 140 90 C106.67 89.67 73.34 89.34 39 89 C38.67 93.62 38.34 98.24 38 103 C37.45742252 107.54503813 36.88535868 112.072729 36.2578125 116.60546875 C36.00425491 118.47251213 36.00425491 118.47251213 35.74557495 120.37727356 C35.29954174 123.6533004 34.8495034 126.92874392 34.39770508 130.20397949 C33.94697047 133.4823979 33.50340797 136.76178954 33.05859375 140.04101562 C31.19424726 153.72032655 29.24071994 167.37697921 27 181 C22.38 181 17.76 181 13 181 C14.31593782 163.16129886 16.06940968 145.39984062 18.0625 127.625 C18.46782409 123.98314 18.87205032 120.3411616 19.2752533 116.69906616 C19.52313221 114.46276111 19.77234575 112.22660339 20.02320862 109.9906311 C22.51065615 90.93096068 22.51065615 90.93096068 19.7265625 72.1640625 C19.48700836 71.33853882 19.24745422 70.51301514 19.00064087 69.66247559 C18.21964399 66.97999595 17.42225387 64.30268772 16.625 61.625 C16.08041665 59.76193231 15.537137 57.89848308 14.99511719 56.03466797 C13.88628935 52.22712715 12.77159517 48.42138977 11.65136719 44.6171875 C9.37684168 36.88919332 7.13396553 29.1522121 4.90887451 21.40985107 C4.26025363 19.16055764 3.60438104 16.9134711 2.94775391 14.66650391 C2.55342275 13.30118997 2.15936366 11.93579742 1.765625 10.5703125 C1.42305664 9.39227051 1.08048828 8.21422852 0.72753906 7.00048828 C0 4 0 4 0 0 Z M126.546875 58.5546875 C125.27150077 59.31194095 124.00606412 60.08613046 122.75 60.875 C122.1003125 61.26558594 121.450625 61.65617187 120.78125 62.05859375 C119.17879948 63.02477715 117.58819707 64.01056172 116 65 C116.33 65.99 116.66 66.98 117 68 C127.23 68 137.46 68 148 68 C145.02475094 65.76856321 142.17714032 63.83119187 139 61.9375 C138.154375 61.43089844 137.30875 60.92429688 136.4375 60.40234375 C135.633125 59.93957031 134.82875 59.47679687 134 59 C133.38640625 58.52949219 132.7728125 58.05898437 132.140625 57.57421875 C129.72721124 56.68482788 129.72721124 56.68482788 126.546875 58.5546875 Z M163 67 C163 67.33 163 67.66 163 68 C165.31 68 167.62 68 170 68 C170 67.67 170 67.34 170 67 C167.69 67 165.38 67 163 67 Z " fill="#A1C2FB" transform="translate(70,153)"/>
<path d="M0 0 C4.95917779 0.45083434 9.80535712 1.12612334 14.70166016 2.04248047 C25.08554017 3.98570483 35.4809269 5.07536586 46 6 C44.60000015 13.42467265 42.2376515 18.72650548 38 25 C37.401875 25.886875 36.80375 26.77375 36.1875 27.6875 C32.8196314 31.24781823 28.91685658 34.07268042 25 37 C27.81308522 45.83043926 31.07632909 54.41555931 34.5625 63 C35.62282898 65.62820821 36.68042951 68.25751266 37.73828125 70.88671875 C38.00627533 71.55184982 38.27426941 72.2169809 38.55038452 72.90226746 C41.23565954 79.57143245 43.88369929 86.25506799 46.51535034 92.94555664 C47.24131751 94.79043544 47.96940099 96.634481 48.69750977 98.47851562 C49.13248779 99.58517578 49.56746582 100.69183594 50.015625 101.83203125 C50.40008789 102.80889893 50.78455078 103.7857666 51.18066406 104.79223633 C52 107 52 107 52 108 C48.37 108 44.74 108 41 108 C34.83696876 94.78346151 28.8487665 81.5300949 23.35009766 68.02148438 C21.60225114 63.74651549 19.82164195 59.54940802 17.71484375 55.4375 C16 52 16 52 16 50 C8.87098644 52.03353212 1.74218431 54.06780371 -5.38635826 56.10298634 C-8.69741247 57.04826039 -12.00853551 57.99329182 -15.31982422 58.93774414 C-19.13790913 60.02675792 -22.95567968 61.1168713 -26.7734375 62.20703125 C-27.94675629 62.54152786 -29.12007507 62.87602448 -30.32894897 63.22065735 C-36.90113111 65.09836038 -43.45954084 67.0145014 -50 69 C-50.78673635 75.10431575 -48.29552676 78.10132992 -44.8125 82.75 C-38.94085981 90.92872381 -34.7881056 98.24163041 -32 108 C-56.42 108 -80.84 108 -106 108 C-108.45599786 102.4740048 -110.63527486 97.46490163 -112.47265625 91.796875 C-112.68184189 91.15236389 -112.89102753 90.50785278 -113.10655212 89.84381104 C-113.54329238 88.49350634 -113.97757021 87.14240281 -114.40942383 85.79052734 C-115.05759252 83.76533336 -115.71670636 81.74394017 -116.37695312 79.72265625 C-126.25886688 49.18914503 -126.25886688 49.18914503 -121.0859375 36.01953125 C-116.86639751 28.17240113 -108.72568246 23.85739293 -101 20 C-99.68 19.67 -98.36 19.34 -97 19 C-97 27.58 -97 36.16 -97 45 C-81.87811435 43.55355876 -70.90906869 40.70541624 -59.01025391 30.96166992 C-50.4872368 24.03923609 -43.37445566 22.76556925 -32.62109375 22.42456055 C-26.43226931 22.17817773 -21.46649703 21.03211267 -16 18 C-14.948125 17.4225 -13.89625 16.845 -12.8125 16.25 C-7.2027473 11.76219784 -2.81567397 6.62511523 0 0 Z " fill="#428DFB" transform="translate(370,226)"/>
<path d="M0 0 C44.22 0 88.44 0 134 0 C134.99 11.55 135.98 23.1 137 35 C138.16203536 46.08598699 139.35573044 57.16588495 140.60131836 68.24243164 C141.00306178 71.82910368 141.39828302 75.41645179 141.79296875 79.00390625 C141.97571602 80.59918907 141.97571602 80.59918907 142.16215515 82.22669983 C142.85141466 88.51406764 143.15198489 94.67571237 143 101 C140.85423363 101.02685938 138.70837355 101.04633088 136.5625 101.0625 C135.36753906 101.07410156 134.17257813 101.08570313 132.94140625 101.09765625 C130 101 130 101 129 100 C128.54559193 97.20878065 128.14830465 94.42829898 127.78491211 91.62475586 C127.66584535 90.73253861 127.54677858 89.84032137 127.42410374 88.92106724 C127.03787791 86.01950399 126.65751606 83.1172057 126.27734375 80.21484375 C126.04046481 78.42870052 125.80320375 76.64260792 125.56555176 74.85656738 C124.68489432 68.21749212 123.81165295 61.57743483 122.9375 54.9375 C120.978125 40.108125 119.01875 25.27875 117 10 C83.67 9.67 50.34 9.34 16 9 C15.67 13.62 15.34 18.24 15 23 C14.45742252 27.54503813 13.88535868 32.072729 13.2578125 36.60546875 C13.08877411 37.85016434 12.91973572 39.09485992 12.74557495 40.37727356 C12.29954174 43.6533004 11.8495034 46.92874392 11.39770508 50.20397949 C10.94697047 53.4823979 10.50340797 56.76178954 10.05859375 60.04101562 C8.19424726 73.72032655 6.24071994 87.37697921 4 101 C-0.62 101 -5.24 101 -10 101 C-8.69720294 83.37009034 -6.97430903 65.81647555 -5 48.25 C-4.6046703 44.7110671 -4.21051937 41.17200998 -3.81811523 37.63275146 C-3.57729986 35.46282577 -3.33483495 33.29308195 -3.09008789 31.12359619 C-1.93513163 20.7574744 -0.98939784 10.38867733 0 0 Z " fill="#E3E7EB" transform="translate(93,233)"/>
<path d="M0 0 C1.6640625 1.26171875 1.6640625 1.26171875 3 3 C3.29296875 5.26171875 3.29296875 5.26171875 3.1875 7.6875 C3.14689453 8.89986328 3.14689453 8.89986328 3.10546875 10.13671875 C3.05326172 11.05904297 3.05326172 11.05904297 3 12 C3.61617188 12.28359375 4.23234375 12.5671875 4.8671875 12.859375 C8.67089022 14.89358964 10.52210782 17.97594534 12.3125 21.8125 C14.06049444 29.91683787 11.10913323 36.14791443 7 43 C3.08023491 48.96364259 -0.50691913 52.95222735 -7 56 C-6.21625 56.94875 -5.4325 57.8975 -4.625 58.875 C-3.96371094 59.67550781 -3.96371094 59.67550781 -3.2890625 60.4921875 C-2.24749008 61.71051161 -1.13339903 62.86660097 0 64 C-7.35159817 71.7716895 -7.35159817 71.7716895 -13.625 72.3125 C-17 72 -17 72 -20 70 C-20.75406896 67.9398267 -21.43166461 65.85118556 -22.0625 63.75 C-24.35855841 57.39383831 -26.73811502 55.14002992 -32.69921875 52.19921875 C-35.63032613 50.67145989 -37.11868957 48.67724946 -39 46 C-41.12603185 44.23676495 -41.12603185 44.23676495 -43 43 C-42.67 40.36 -42.34 37.72 -42 35 C-42.639375 34.7525 -43.27875 34.505 -43.9375 34.25 C-46 33 -46 33 -46.62890625 30.921875 C-46.75136719 30.28765625 -46.87382812 29.6534375 -47 29 C-46.50628906 28.66226563 -46.01257813 28.32453125 -45.50390625 27.9765625 C-44.86324219 27.53054687 -44.22257812 27.08453125 -43.5625 26.625 C-42.92441406 26.18414062 -42.28632813 25.74328125 -41.62890625 25.2890625 C-39.86259072 24.07839147 -39.86259072 24.07839147 -39 22 C-38.34 22 -37.68 22 -37 22 C-37 21.01 -37 20.02 -37 19 C-37.81726563 18.76539062 -38.63453125 18.53078125 -39.4765625 18.2890625 C-43.73071995 16.73266343 -47.46373396 14.63830042 -51.375 12.375 C-52.11105469 11.95476563 -52.84710938 11.53453125 -53.60546875 11.1015625 C-55.4063765 10.07247236 -57.20357318 9.03689244 -59 8 C-58.67 7.01 -58.34 6.02 -58 5 C-52.02859313 5.45413612 -47.69082073 8.12561669 -42.625 11.0625 C-41.79355469 11.53494141 -40.96210938 12.00738281 -40.10546875 12.49414062 C-38.0655651 13.65477546 -36.03077982 14.82349773 -34 16 C-33.71511719 15.22914062 -33.43023437 14.45828125 -33.13671875 13.6640625 C-31.14494115 8.99604764 -28.11709895 6.59016548 -23.6875 4.25 C-20.8448916 3.28640393 -18.83683531 2.7877203 -15.9375 2.5 C-12.00454627 2.23124285 -12.00454627 2.23124285 -8.875 0.375 C-5.35068132 -1.31054372 -3.69242973 -1.14875592 0 0 Z M-8 4 C-8 4.66 -8 5.32 -8 6 C-6.03533587 7.06775224 -4.03144641 8.06553465 -2 9 C-1.34 8.67 -0.68 8.34 0 8 C-1.3553326 5.46326712 -1.3553326 5.46326712 -3 3 C-5.21081851 2.89459074 -5.21081851 2.89459074 -8 4 Z " fill="#A1BFF6" transform="translate(353,50)"/>
<path d="M0 0 C2 1 2 1 2.87475586 3.23046875 C3.17260986 4.20628906 3.47046387 5.18210937 3.77734375 6.1875 C6.04205042 13.26901933 8.76612433 20.11412959 11.5625 27 C12.62282898 29.62820821 13.68042951 32.25751266 14.73828125 34.88671875 C15.14027237 35.88441536 15.14027237 35.88441536 15.55038452 36.90226746 C18.23565954 43.57143245 20.88369929 50.25506799 23.51535034 56.94555664 C24.24131751 58.79043544 24.96940099 60.634481 25.69750977 62.47851562 C26.13248779 63.58517578 26.56746582 64.69183594 27.015625 65.83203125 C27.40008789 66.80889893 27.78455078 67.7857666 28.18066406 68.79223633 C29 71 29 71 29 72 C25.37 72 21.74 72 18 72 C11.83696876 58.78346151 5.8487665 45.5300949 0.35009766 32.02148438 C-1.39774886 27.74651549 -3.17835805 23.54940802 -5.28515625 19.4375 C-7 16 -7 16 -7 14 C-14.12901356 16.03353212 -21.25781569 18.06780371 -28.38635826 20.10298634 C-31.69741247 21.04826039 -35.00853551 21.99329182 -38.31982422 22.93774414 C-42.13790913 24.02675792 -45.95567968 25.1168713 -49.7734375 26.20703125 C-50.94675629 26.54152786 -52.12007507 26.87602448 -53.32894897 27.22065735 C-59.90113111 29.09836038 -66.45954084 31.0145014 -73 33 C-73.78673635 39.10431575 -71.29552676 42.10132992 -67.8125 46.75 C-61.94085981 54.92872381 -57.7881056 62.24163041 -55 72 C-62.92 72 -70.84 72 -79 72 C-79.97976828 66.57418141 -80.95875725 61.14823386 -81.93579102 55.72192383 C-82.26802023 53.87809213 -82.60069638 52.03434091 -82.93383789 50.19067383 C-83.41411534 47.53227715 -83.89275566 44.87358999 -84.37109375 42.21484375 C-84.51904892 41.39789536 -84.66700409 40.58094696 -84.81944275 39.73924255 C-85.63984529 35.16906041 -86.37346388 30.60087252 -87 26 C-81.7337494 23.96549263 -76.48817444 22.1824545 -71.05517578 20.65576172 C-70.30619522 20.44235138 -69.55721466 20.22894104 -68.78553772 20.00906372 C-66.33964941 19.3128948 -63.89248207 18.62133752 -61.4453125 17.9296875 C-59.73507969 17.44347327 -58.02494735 16.95690554 -56.31491089 16.47000122 C-51.83506125 15.19517636 -47.35418864 13.92398975 -42.87298584 12.65393066 C-35.67970607 10.61495866 -28.48753042 8.57211551 -21.29626083 6.52606583 C-18.78510081 5.81244231 -16.27321548 5.1014156 -13.76126099 4.39059448 C-12.2302982 3.95564508 -10.69936207 3.52060184 -9.16845703 3.08544922 C-8.46820908 2.88804138 -7.76796112 2.69063354 -7.04649353 2.48724365 C-3.44063539 1.46506256 -3.44063539 1.46506256 0 0 Z " fill="#DEE4EB" transform="translate(393,262)"/>
<path d="M0 0 C3.51478772 1.08936187 6.86870288 2.49155057 10.25 3.9375 C12.02587852 4.67617361 13.80191341 5.41447142 15.578125 6.15234375 C16.35575195 6.48226318 17.13337891 6.81218262 17.93457031 7.15209961 C21.60089637 8.65720013 24.38501961 9.11941978 28.32421875 9.09765625 C29.35224609 9.09443359 30.38027344 9.09121094 31.43945312 9.08789062 C32.51130859 9.07951172 33.58316406 9.07113281 34.6875 9.0625 C35.77095703 9.05798828 36.85441406 9.05347656 37.97070312 9.04882812 C40.64719085 9.03703743 43.32356777 9.02058063 46 9 C46.495 12.465 46.495 12.465 47 16 C48.98 16.33 50.96 16.66 53 17 C53 25.58 53 34.16 53 43 C48.05642649 42.17607108 45.80861319 41.63288887 41.671875 39.34765625 C40.22554687 38.55391602 40.22554687 38.55391602 38.75 37.74414062 C37.76 37.18919922 36.77 36.63425781 35.75 36.0625 C34.74453125 35.51142578 33.7390625 34.96035156 32.703125 34.39257812 C25.29546523 30.29546523 25.29546523 30.29546523 23 28 C19.99789683 26.95619059 17.43711128 26.96578652 14.2890625 27.18359375 C0.04436488 27.88307633 -7.51255199 26.02704892 -18.98828125 17.52734375 C-21.20508211 16.71631675 -21.20508211 16.71631675 -23.91015625 18.37109375 C-24.95042969 19.05300781 -25.99070313 19.73492187 -27.0625 20.4375 C-30.22265625 22.49609375 -30.22265625 22.49609375 -33 24 C-33.99 23.67 -34.98 23.34 -36 23 C-36.82421875 20.32421875 -36.82421875 20.32421875 -37 17 C-34.83203125 14.33203125 -34.83203125 14.33203125 -31.8125 11.8125 C-30.82894531 10.97332031 -29.84539062 10.13414062 -28.83203125 9.26953125 C-27.89746094 8.52058594 -26.96289062 7.77164063 -26 7 C-25.31035156 6.40445313 -24.62070313 5.80890625 -23.91015625 5.1953125 C-21.56098082 3.72527634 -20.35158694 3.79940828 -17.625 4.0625 C-10.6830536 4.34607624 -7.34975412 -0.68858643 0 0 Z " fill="#FDBAB2" transform="translate(221,194)"/>
<path d="M0 0 C8.74282802 -0.14030929 17.41830722 0.22847917 26.13769531 0.79956055 C28.26079309 0.93820482 30.38423536 1.07009591 32.5078125 1.20117188 C39.03490494 1.61276197 45.52398308 2.06886285 52 3 C52.08636719 4.12277344 52.17273438 5.24554688 52.26171875 6.40234375 C53.18024821 17.41655796 53.18024821 17.41655796 57.9765625 27.23828125 C59 29 59 29 59 33 C56.07120629 32.37240135 53.63904371 31.41377341 51 30 C50.34 31.32 49.68 32.64 49 34 C47.68 33.67 46.36 33.34 45 33 C45 32.34 45 31.68 45 31 C44.44570312 30.75636719 43.89140625 30.51273438 43.3203125 30.26171875 C40.52229846 28.74023974 38.3054741 26.87096276 35.875 24.8125 C26.86195618 17.38442714 17.79709058 11.63775356 7.3359375 6.46313477 C6.53285156 6.05764404 5.72976562 5.65215332 4.90234375 5.234375 C4.17523193 4.87569336 3.44812012 4.51701172 2.69897461 4.14746094 C1 3 1 3 0 0 Z " fill="#91B8F7" transform="translate(73,32)"/>
<path d="M0 0 C1.38696289 2.1159668 1.38696289 2.1159668 2.47265625 4.94921875 C2.8917627 6.01132568 3.31086914 7.07343262 3.74267578 8.16772461 C4.17821777 9.32925049 4.61375977 10.49077637 5.0625 11.6875 C5.77278975 13.50837306 6.48310938 15.32923488 7.19482422 17.14955139 C7.94843401 19.08498808 8.69316001 21.02368492 9.43701172 22.96289062 C11.031139 27.10209891 12.6835972 31.21661745 14.34765625 35.328125 C14.90031088 36.69571874 15.45296389 38.06331314 16.00561523 39.4309082 C16.40887527 40.42847641 16.40887527 40.42847641 16.82028198 41.44619751 C18.10599965 44.62775022 19.3884106 47.81048201 20.6640625 50.99609375 C21.09154785 52.06013428 21.5190332 53.1241748 21.95947266 54.22045898 C23 57 23 57 24 61 C20.37 61 16.74 61 13 61 C6.87641004 47.86804282 0.92361358 34.69797268 -4.56201172 21.28515625 C-7.22500441 14.78442102 -10.050591 8.37595102 -13 2 C-4.61971477 -1.55096832 -4.61971477 -1.55096832 0 0 Z " fill="#E4E8EB" transform="translate(398,273)"/>
<path d="M0 0 C2.4765625 1.703125 2.4765625 1.703125 3.51171875 3.484375 C3.45738908 6.91318112 2.03637964 9.39737574 0.5390625 12.453125 C-0.02683594 13.62359375 -0.59273438 14.7940625 -1.17578125 16 C-1.62050781 16.89203125 -2.06523437 17.7840625 -2.5234375 18.703125 C-3.25949219 18.67992188 -3.99554688 18.65671875 -4.75390625 18.6328125 C-6.21763672 18.60574219 -6.21763672 18.60574219 -7.7109375 18.578125 C-8.67386719 18.55492188 -9.63679688 18.53171875 -10.62890625 18.5078125 C-13.55063175 18.52913695 -13.55063175 18.52913695 -16.0546875 19.890625 C-18.5234375 20.703125 -18.5234375 20.703125 -21.07421875 19.6484375 C-22.44126953 18.74738281 -22.44126953 18.74738281 -23.8359375 17.828125 C-28.68787267 14.78518294 -33.56554782 12.09268495 -38.7109375 9.578125 C-44.40885229 6.77534141 -50.02279096 3.88127634 -55.5234375 0.703125 C-55.1934375 -0.286875 -54.8634375 -1.276875 -54.5234375 -2.296875 C-48.55203063 -1.84273888 -44.21425823 0.82874169 -39.1484375 3.765625 C-38.31699219 4.23806641 -37.48554688 4.71050781 -36.62890625 5.19726562 C-34.5890026 6.35790046 -32.55421732 7.52662273 -30.5234375 8.703125 C-30.23855469 7.93226562 -29.95367187 7.16140625 -29.66015625 6.3671875 C-27.65486936 1.66751169 -24.58825781 -0.72502706 -20.1484375 -3.109375 C-12.09469045 -5.74767145 -7.33999947 -3.60625284 0 0 Z " fill="#E44649" transform="translate(349.5234375,57.296875)"/>
<path d="M0 0 C18.81 0 37.62 0 57 0 C57 4.29 57 8.58 57 13 C44.63629742 13.07212076 32.29579919 12.8533314 19.9375 12.5 C18.18425066 12.45160986 16.43099545 12.40343179 14.67773438 12.35546875 C10.45175164 12.23941109 6.2258575 12.12052814 2 12 C0.86235649 7.73383684 0 4.43513689 0 0 Z " fill="#89B3F3" transform="translate(187,221)"/>
<path d="M0 0 C1.175625 0.103125 2.35125 0.20625 3.5625 0.3125 C7.48039959 1.09607992 8.93252342 2.54601874 12 5 C15.689748 5.80222151 15.689748 5.80222151 19 6 C18.67 7.98 18.34 9.96 18 12 C18.87398438 12.39832031 18.87398438 12.39832031 19.765625 12.8046875 C22.06174228 14.03302996 23.80356018 15.40314939 25.75 17.125 C26.36359375 17.66382812 26.9771875 18.20265625 27.609375 18.7578125 C28.06828125 19.16773437 28.5271875 19.57765625 29 20 C26.79875103 24.66146841 23.7749528 27.18982322 19 29 C14.52035842 29.44796416 12.77213052 29.51475368 9 27 C8.24593104 24.9398267 7.56833539 22.85118556 6.9375 20.75 C4.64359898 14.3998106 2.26778631 12.14777206 -3.68359375 9.203125 C-6.6344725 7.67045948 -8.27562113 5.82171088 -10 3 C-10 2.34 -10 1.68 -10 1 C-6.3668953 -1.37549154 -4.14607075 -0.89425055 0 0 Z " fill="#F4ABA6" transform="translate(324,93)"/>
<path d="M0 0 C3.33655152 0.24715196 4.22536589 1.23073175 6.625 3.6875 C9.87097473 7.90526346 11.02710389 11.37376682 10.9375 16.75 C9.41841984 25.91686306 3.3787668 35.71502855 -3.86328125 41.484375 C-6.4731248 43.11622578 -8.33149028 44.0685651 -11.4375 43.75 C-11.953125 43.5025 -12.46875 43.255 -13 43 C-13.24609375 40.69921875 -13.24609375 40.69921875 -13 38 C-11.28515625 36.26953125 -11.28515625 36.26953125 -9.0625 34.8125 C-5.99415787 32.88837056 -5.99415787 32.88837056 -4 30 C-3.76371554 27.7298149 -3.76371554 27.7298149 -3.75 25.1875 C-3.72421875 24.33542969 -3.6984375 23.48335937 -3.671875 22.60546875 C-3.81294625 19.86927456 -3.81294625 19.86927456 -5.6875 17.55859375 C-6.120625 16.71425781 -6.55375 15.86992188 -7 15 C-6.015625 11.9921875 -6.015625 11.9921875 -4.25 8.875 C-1.83866685 4.56416984 -1.83866685 4.56416984 0 0 Z " fill="#DB3F4B" transform="translate(355,62)"/>
<path d="M0 0 C8.95562601 1.81983361 17.44761152 4.63679414 26.06689453 7.63793945 C27.85822287 8.2552061 29.65423494 8.85904139 31.45458984 9.44946289 C34.08042487 10.31159533 36.68858153 11.2152631 39.296875 12.12890625 C40.09591248 12.38241348 40.89494995 12.63592072 41.71820068 12.89710999 C47.2914331 14.92318651 49.52659915 17.52449354 52.21221924 22.77671814 C53 25 53 25 53 29 C50.07120629 28.37240135 47.63904371 27.41377341 45 26 C44.34 27.32 43.68 28.64 43 30 C41.68 29.67 40.36 29.34 39 29 C39 28.34 39 27.68 39 27 C38.44570312 26.75636719 37.89140625 26.51273438 37.3203125 26.26171875 C34.52229846 24.74023974 32.3054741 22.87096276 29.875 20.8125 C21.58292161 13.95727646 13.1676485 8.36436685 3.58984375 3.48046875 C1 2 1 2 0 0 Z " fill="#9FC2FB" transform="translate(79,36)"/>
<path d="M0 0 C3.98042168 0.58809834 6.86247219 1.82031677 10.3125 3.875 C11.19550781 4.38804688 12.07851563 4.90109375 12.98828125 5.4296875 C13.65214844 5.94789062 14.31601562 6.46609375 15 7 C15 10 15 10 14 12 C13.92966231 13.87379605 13.9156978 15.75001102 13.9375 17.625 C13.94652344 18.62789062 13.95554687 19.63078125 13.96484375 20.6640625 C13.97644531 21.43492188 13.98804688 22.20578125 14 23 C9.80964675 22.53440519 7.83118296 22.08856323 5 19 C2.89667109 18.28552357 2.89667109 18.28552357 1 18 C0.67 19.65 0.34 21.3 0 23 C-1.32 22.67 -2.64 22.34 -4 22 C-4.12375 20.329375 -4.12375 20.329375 -4.25 18.625 C-4.62125 16.830625 -4.62125 16.830625 -5 15 C-6.95021083 13.77472052 -6.95021083 13.77472052 -9 13 C-9.625 10.94921875 -9.625 10.94921875 -10 9 C-9.50628906 8.66226563 -9.01257813 8.32453125 -8.50390625 7.9765625 C-7.86324219 7.53054687 -7.22257812 7.08453125 -6.5625 6.625 C-5.92441406 6.18414062 -5.28632813 5.74328125 -4.62890625 5.2890625 C-2.86259072 4.07839147 -2.86259072 4.07839147 -2 2 C-1.34 2 -0.68 2 0 2 C0 1.34 0 0.68 0 0 Z " fill="#FCBCB6" transform="translate(316,70)"/>
<path d="M0 0 C9.37095039 8.99676314 14.11503616 18.85948801 18 31 C13.38 31 8.76 31 4 31 C-0.39150943 9.98349057 -0.39150943 9.98349057 0 0 Z " fill="#448EFB" transform="translate(320,303)"/>
<path d="M0 0 C1.175625 0.103125 2.35125 0.20625 3.5625 0.3125 C7.48039959 1.09607992 8.93252342 2.54601874 12 5 C15.689748 5.80222151 15.689748 5.80222151 19 6 C18.39816251 8.02045442 17.72693904 10.02111039 17 12 C12.32269335 14.33865333 5.52609861 13.72115376 0.60546875 12.31640625 C-4.13544199 10.13178008 -7.0343887 7.26306625 -10 3 C-10 2.34 -10 1.68 -10 1 C-6.3668953 -1.37549154 -4.14607075 -0.89425055 0 0 Z " fill="#FCBDB6" transform="translate(324,93)"/>
<path d="M0 0 C2.72009268 2.35741365 2.97887341 3.85475469 3.5 7.4375 C3 11 3 11 0.875 13.9375 C-2 16 -2 16 -5 16.625 C-9.10703441 15.76936783 -10.55401113 14.38121991 -13 11 C-13.5625 7.4375 -13.5625 7.4375 -13 4 C-9.28932288 -0.86226657 -5.80082 -1.57105542 0 0 Z " fill="#89B3F4" transform="translate(132,187)"/>
<path d="M0 0 C2.375 1.125 2.375 1.125 4 3 C5.27660161 6.82980483 5.18425101 8.53498554 3.6875 12.3125 C2 15 2 15 0 16 C-6.19296117 16.57342233 -6.19296117 16.57342233 -9.375 14.3125 C-11.23688689 11.66289173 -11.92278899 10.24286253 -12 7 C-9.25900524 0.21277487 -7.21936807 -0.49788745 0 0 Z " fill="#93B5E0" transform="translate(344,79)"/>
<path d="M0 0 C3.465 1.485 3.465 1.485 7 3 C5.15043394 8.71684055 2.01744129 12.72365959 -3.0625 15.9375 C-6.03101934 17.01121976 -7.14522351 17.20779006 -10 16 C-10.2421875 13.6875 -10.2421875 13.6875 -10 11 C-8.3203125 9.375 -8.3203125 9.375 -6.125 8 C-2.74048426 5.69183202 -0.9750882 4.14412484 0 0 Z " fill="#282C6D" transform="translate(352,89)"/>
<path d="M0 0 C3.31446924 1.27859492 6.46678235 2.69245575 9.609375 4.34765625 C10.86427734 5.00797852 10.86427734 5.00797852 12.14453125 5.68164062 C13.00433594 6.13732422 13.86414063 6.59300781 14.75 7.0625 C15.62527344 7.52205078 16.50054687 7.98160156 17.40234375 8.45507812 C23.86872691 11.86872691 23.86872691 11.86872691 25 13 C25.04063832 14.66617115 25.042721 16.33388095 25 18 C24.01 18.33 23.02 18.66 22 19 C21.34 18.67 20.68 18.34 20 18 C20 17.34 20 16.68 20 16 C19.45214844 15.75894531 18.90429688 15.51789062 18.33984375 15.26953125 C15.45210492 13.70272804 13.09615943 11.77838399 10.5625 9.6875 C9.63566406 8.92824219 8.70882812 8.16898438 7.75390625 7.38671875 C5.03945648 5.03419562 2.50710232 2.57080365 0 0 Z " fill="#8AB3F4" transform="translate(98,47)"/>
<path d="M0 0 C2.16200788 1.65330014 2.92037104 2.46819227 3.328125 5.19140625 C3.30234375 5.97386719 3.2765625 6.75632812 3.25 7.5625 C3.23453125 8.34753906 3.2190625 9.13257813 3.203125 9.94140625 C3 12 3 12 2 14 C1.34 14 0.68 14 0 14 C-0.10957031 13.36191406 -0.21914063 12.72382812 -0.33203125 12.06640625 C-0.49058594 11.24011719 -0.64914062 10.41382813 -0.8125 9.5625 C-0.96332031 8.73878906 -1.11414063 7.91507813 -1.26953125 7.06640625 C-1.51058594 6.38449219 -1.75164062 5.70257813 -2 5 C-5.69418201 3.768606 -8.2056261 4.35567236 -12 5 C-12 4.01 -12 3.02 -12 2 C-7.57309144 -0.63506462 -4.99765908 -1.55482727 0 0 Z " fill="#A0C1FA" transform="translate(353,50)"/>
<path d="M0 0 C2.97 0.495 2.97 0.495 6 1 C6.33 1.99 6.66 2.98 7 4 C7.66 4 8.32 4 9 4 C9 4.66 9 5.32 9 6 C6 6 3 6 0 6 C-1.2684375 6.309375 -1.2684375 6.309375 -2.5625 6.625 C-3.366875 6.74875 -4.17125 6.8725 -5 7 C-5.66 6.34 -6.32 5.68 -7 5 C-7 4.01 -7 3.02 -7 2 C-6.34 2 -5.68 2 -5 2 C-4.67 2.66 -4.34 3.32 -4 4 C-3.01 4 -2.02 4 -1 4 C-0.67 2.68 -0.34 1.36 0 0 Z " fill="#A4B7DC" transform="translate(317,88)"/>
<path d="M0 0 C1.65322266 0.01740234 1.65322266 0.01740234 3.33984375 0.03515625 C4.99693359 0.04869141 4.99693359 0.04869141 6.6875 0.0625 C7.54214844 0.07410156 8.39679688 0.08570313 9.27734375 0.09765625 C8.28734375 0.75765625 7.29734375 1.41765625 6.27734375 2.09765625 C6.27734375 3.08765625 6.27734375 4.07765625 6.27734375 5.09765625 C5.61734375 5.09765625 4.95734375 5.09765625 4.27734375 5.09765625 C4.27734375 4.43765625 4.27734375 3.77765625 4.27734375 3.09765625 C2.95734375 3.09765625 1.63734375 3.09765625 0.27734375 3.09765625 C-0.38265625 3.75765625 -1.04265625 4.41765625 -1.72265625 5.09765625 C-1.72265625 4.43765625 -1.72265625 3.77765625 -1.72265625 3.09765625 C-2.71265625 3.09765625 -3.70265625 3.09765625 -4.72265625 3.09765625 C-3.231787 0.11591775 -3.231787 0.11591775 0 0 Z " fill="#4F94F9" transform="translate(395.72265625,230.90234375)"/>
<path d="M0 0 C4.455 2.97 4.455 2.97 9 6 C8.01 7.485 8.01 7.485 7 9 C3.535 7.02 3.535 7.02 0 5 C0 3.35 0 1.7 0 0 Z " fill="#DA5056" transform="translate(352,84)"/>
<path d="M0 0 C2.0625 0.4375 2.0625 0.4375 4 1 C4 2.32 4 3.64 4 5 C2.68 5.33 1.36 5.66 0 6 C-0.38218767 4.34385343 -0.71395102 2.67542976 -1 1 C-0.67 0.67 -0.34 0.34 0 0 Z " fill="#8AB3F4" transform="translate(174,84)"/>
<path d="M0 0 C2.0625 0.4375 2.0625 0.4375 4 1 C3.67 2.65 3.34 4.3 3 6 C1.68 5.67 0.36 5.34 -1 5 C-1 1 -1 1 0 0 Z " fill="#89B3F4" transform="translate(154,82)"/>
<path d="M0 0 C2.0625 0.4375 2.0625 0.4375 4 1 C3.67 2.65 3.34 4.3 3 6 C1.68 5.67 0.36 5.34 -1 5 C-1 1 -1 1 0 0 Z " fill="#8AB3F4" transform="translate(158,107)"/>
<path d="M0 0 C1.10153804 3.30461413 0.95317786 3.98668832 -0.1875 7.125 C-0.42855469 7.82882813 -0.66960937 8.53265625 -0.91796875 9.2578125 C-2 11 -2 11 -4.11328125 11.7421875 C-4.73589844 11.82726562 -5.35851562 11.91234375 -6 12 C-4.43358249 7.69235185 -2.31663844 3.93828536 0 0 Z " fill="#1A2059" transform="translate(329,166)"/>
<path d="M0 0 C1.98 0.495 1.98 0.495 4 1 C3.67 2.65 3.34 4.3 3 6 C1.68 5.67 0.36 5.34 -1 5 C-0.67 3.35 -0.34 1.7 0 0 Z " fill="#89B3F4" transform="translate(187,161)"/>
<path d="M0 0 C1.98 0.495 1.98 0.495 4 1 C3.67 2.65 3.34 4.3 3 6 C1.68 5.67 0.36 5.34 -1 5 C-0.67 3.35 -0.34 1.7 0 0 Z " fill="#88B3F4" transform="translate(193,142)"/>
<path d="M0 0 C1.98 0.495 1.98 0.495 4 1 C3.67 2.65 3.34 4.3 3 6 C1.68 5.67 0.36 5.34 -1 5 C-0.67 3.35 -0.34 1.7 0 0 Z " fill="#89B3F4" transform="translate(159,125)"/>
<path d="M0 0 C1.98 0.495 1.98 0.495 4 1 C3.67 2.65 3.34 4.3 3 6 C1.68 5.67 0.36 5.34 -1 5 C-0.67 3.35 -0.34 1.7 0 0 Z " fill="#8BB4F4" transform="translate(123,78)"/>
<path d="M0 0 C1.65 0.33 3.3 0.66 5 1 C4.67 2.32 4.34 3.64 4 5 C2.35 4.67 0.7 4.34 -1 4 C-0.67 2.68 -0.34 1.36 0 0 Z " fill="#8AB3F4" transform="translate(119,69)"/>
<path d="M0 0 C0.99 0.66 1.98 1.32 3 2 C1.68 4.97 0.36 7.94 -1 11 C-1.66 9.68 -2.32 8.36 -3 7 C-1.625 3.25 -1.625 3.25 0 0 Z " fill="#AAAFE0" transform="translate(352,63)"/>
<path d="M0 0 C1.65 0.33 3.3 0.66 5 1 C4.67 2.32 4.34 3.64 4 5 C2.35 4.67 0.7 4.34 -1 4 C-0.67 2.68 -0.34 1.36 0 0 Z " fill="#89B3F4" transform="translate(177,165)"/>
<path d="M0 0 C1.67542976 0.28604898 3.34385343 0.61781233 5 1 C4.67 2.32 4.34 3.64 4 5 C2.68 5 1.36 5 0 5 C-0.5625 3.0625 -0.5625 3.0625 -1 1 C-0.67 0.67 -0.34 0.34 0 0 Z " fill="#8AB3F4" transform="translate(192,153)"/>
<path d="M0 0 C1.32 0.66 2.64 1.32 4 2 C3.34 3.32 2.68 4.64 2 6 C1.01 6 0.02 6 -1 6 C-1.625 4.125 -1.625 4.125 -2 2 C-1.34 1.34 -0.68 0.68 0 0 Z " fill="#89B3F4" transform="translate(189,133)"/>
<path d="M0 0 C0.99 0.33 1.98 0.66 3 1 C2.67 2.65 2.34 4.3 2 6 C0.68 5.67 -0.64 5.34 -2 5 C-2 3.68 -2 2.36 -2 1 C-1.34 0.67 -0.68 0.34 0 0 Z " fill="#89B3F4" transform="translate(181,92)"/>
<path d="M0 0 C1.65 0.33 3.3 0.66 5 1 C4.67 2.32 4.34 3.64 4 5 C2.35 4.67 0.7 4.34 -1 4 C-0.67 2.68 -0.34 1.36 0 0 Z " fill="#8BB3F3" transform="translate(143,82)"/>
<path d="M0 0 C1.32 0 2.64 0 4 0 C4 1.65 4 3.3 4 5 C2.35 5 0.7 5 -1 5 C-0.67 3.35 -0.34 1.7 0 0 Z " fill="#8AB3F4" transform="translate(179,129)"/>
<path d="M0 0 C2.475 0.495 2.475 0.495 5 1 C5 2.32 5 3.64 5 5 C3.35 5 1.7 5 0 5 C0 3.35 0 1.7 0 0 Z " fill="#89B3F4" transform="translate(168,128)"/>
<path d="M0 0 C0.99 0.33 1.98 0.66 3 1 C2.67 2.65 2.34 4.3 2 6 C0.68 5.67 -0.64 5.34 -2 5 C-2 3.68 -2 2.36 -2 1 C-1.34 0.67 -0.68 0.34 0 0 Z " fill="#89B3F4" transform="translate(134,80)"/>
<path d="M0 0 C1.65 0 3.3 0 5 0 C4.67 1.65 4.34 3.3 4 5 C2.68 4.67 1.36 4.34 0 4 C0 2.68 0 1.36 0 0 Z " fill="#89B3F4" transform="translate(153,117)"/>
<path d="M0 0 C1.32 0 2.64 0 4 0 C4 1.65 4 3.3 4 5 C2.35 4.67 0.7 4.34 -1 4 C-0.67 2.68 -0.34 1.36 0 0 Z " fill="#89B3F4" transform="translate(167,104)"/>
<path d="M0 0 C1.65 0 3.3 0 5 0 C4.67 1.65 4.34 3.3 4 5 C2.68 4.67 1.36 4.34 0 4 C0 2.68 0 1.36 0 0 Z " fill="#89B3F4" transform="translate(176,102)"/>
<path d="M0 0 C1.98 0.495 1.98 0.495 4 1 C4 2.32 4 3.64 4 5 C2.35 5 0.7 5 -1 5 C-0.67 3.35 -0.34 1.7 0 0 Z " fill="#89B3F4" transform="translate(164,83)"/>
<path d="M0 0 C0.66 0 1.32 0 2 0 C2.33 0.66 2.66 1.32 3 2 C4.65 2 6.3 2 8 2 C7.67 2.66 7.34 3.32 7 4 C4.5625 4.75 4.5625 4.75 2 5 C1.34 4.34 0.68 3.68 0 3 C0 2.01 0 1.02 0 0 Z " fill="#35346E" transform="translate(310,90)"/>
</svg>
